<?xml version="1.0" encoding="UTF-8"?>
<svg version="1.1" xmlns="http://www.w3.org/2000/svg" width="1346" height="341">
<path d="M0 0 C1.64963434 -0.00505857 3.29926316 -0.01229743 4.9488796 -0.02149814 C9.4351183 -0.04026085 13.92080479 -0.02827808 18.40702868 -0.01077521 C23.26325765 0.00268182 28.1194102 -0.01286789 32.97563171 -0.02459717 C42.46990891 -0.04291546 51.96397944 -0.03450075 61.45825006 -0.01650894 C69.17753807 -0.00244887 76.89677021 0.00140255 84.61606979 -0.00195122 C85.71722897 -0.00242866 86.81838814 -0.0029061 87.95291578 -0.00339801 C90.19029401 -0.0044244 92.42767223 -0.00547976 94.66505043 -0.00656378 C114.42065221 -0.01511888 134.17615459 0.00150636 153.93173218 0.03126526 C173.07923557 0.06010757 192.22659582 0.06718091 211.37411499 0.05177307 C232.25339529 0.03499457 253.13260773 0.03099292 274.01188982 0.04848343 C276.24014877 0.05032772 278.46840774 0.05216244 280.69666672 0.0539875 C281.79285694 0.05489959 282.88904717 0.05581168 284.01845527 0.05675141 C291.72504943 0.06234594 299.43161033 0.05905981 307.13820267 0.05244255 C316.53468844 0.04469411 325.93103355 0.05151656 335.32749106 0.07661759 C340.11713703 0.08907664 344.90656441 0.09530286 349.69621849 0.08407593 C354.08814533 0.07397596 358.47963786 0.08261466 362.87151222 0.10565711 C364.45269196 0.11078208 366.03391116 0.10931722 367.61507328 0.10026246 C386.45997521 0.00139585 401.87497422 5.1115307 415.77645874 18.32350159 C432.69907023 35.68757251 434.48231307 55.76828604 434.41073608 78.83326721 C434.41480822 81.04904437 434.42015368 83.26481949 434.42666626 85.48059082 C434.44026924 91.46196724 434.43507029 97.44318733 434.425529 103.42456627 C434.4178959 109.70537592 434.42498811 115.98617282 434.4296875 122.26698303 C434.43548263 133.48542268 434.42620138 144.70379833 434.41090949 155.92222291 C434.39750865 166.06692238 434.39983748 176.21151882 434.41366577 186.35621643 C434.42976756 198.17410787 434.4356713 209.99194952 434.42682898 221.80985403 C434.42216909 228.05206364 434.4214811 234.2942025 434.43143845 240.53640747 C434.44014994 246.40689669 434.43401011 252.2771927 434.41675568 258.14766121 C434.4128131 260.2929407 434.4138863 262.43823666 434.42054367 264.58350945 C434.4817065 286.30732166 431.77568853 305.20825364 416.02255249 321.62818909 C400.78742475 336.29110545 383.18922723 340.10294987 362.64710999 340.01586914 C361.02624307 340.02005016 359.40537908 340.02553187 357.78452045 340.03218895 C353.36390409 340.04656166 348.94347548 340.04242459 344.5228492 340.03502214 C339.74220507 340.03027237 334.9616005 340.04281629 330.18096924 340.05303955 C320.82803774 340.07019786 311.47517352 340.07107369 302.12223037 340.06582665 C294.51635866 340.06177799 286.91050677 340.06323677 279.304636 340.06857491 C278.22029997 340.06932333 277.13596394 340.07007175 276.01876924 340.07084285 C273.81561988 340.0723744 271.61247052 340.07391275 269.40932117 340.07545782 C248.76835987 340.08917226 228.12743652 340.08375271 207.4864761 340.07227261 C188.6255164 340.06234253 169.76465483 340.0752789 150.90371027 340.0992068 C131.51219845 340.12362142 112.1207323 340.13319978 92.72920543 340.12655407 C81.85240215 340.12306695 70.9756743 340.12526032 60.09888268 340.1428051 C50.83926979 340.15755668 41.57978546 340.15812399 32.32017501 340.14073419 C27.60117606 340.13224594 22.88240647 340.13002117 18.16341972 340.14538574 C13.83357891 340.15930809 9.50416233 340.15437374 5.17434559 340.13514651 C3.6179334 340.13140916 2.06148661 340.13424218 0.50510546 340.14475816 C-19.20423202 340.2683331 -36.22928634 335.34397897 -50.97744751 321.62818909 C-67.94216509 303.98734146 -69.44000553 283.58423569 -69.34976196 260.46144104 C-69.35219464 258.2619764 -69.35591857 256.06251288 -69.36082458 253.86305237 C-69.37017027 247.93144594 -69.36086248 242.00000634 -69.34749246 236.06841302 C-69.33611284 229.84006261 -69.34029037 223.61171964 -69.34223938 217.38336182 C-69.34317639 206.26274201 -69.32978595 195.14219412 -69.31007799 184.02159353 C-69.29257895 173.96099831 -69.2878937 163.90046741 -69.29312134 153.83985901 C-69.29984202 140.86775331 -69.29651278 127.89569133 -69.28401756 114.92358971 C-69.2793882 109.98490466 -69.27849048 105.0462401 -69.28060341 100.10755348 C-69.28249439 94.28879806 -69.27432035 88.47013883 -69.25854301 82.65140533 C-69.25432036 80.52302384 -69.25343592 78.39463255 -69.25623322 76.2662487 C-69.28100369 54.03870229 -66.73175047 34.925145 -50.85244751 17.94068909 C-36.31203666 4.23396115 -19.37351697 -0.1589419 0 0 Z " fill="#000000" transform="translate(68.97744750976563,-0.6281890869140625)"/>
<path d="M0 0 C2.53434725 0.00141274 5.06869654 0.00061409 7.6030426 -0.00221252 C13.02846117 -0.00334487 18.45349133 0.0106785 23.87882996 0.03897667 C31.72256671 0.07986208 39.56615863 0.09265926 47.40999037 0.09891663 C60.14043466 0.10982088 72.87071745 0.14298917 85.60107422 0.19042969 C97.95686036 0.23642605 110.3126024 0.27176841 122.66845703 0.29296875 C123.43191132 0.29428237 124.19536561 0.29559598 124.98195487 0.29694941 C128.81253076 0.30347528 132.64310696 0.30979365 136.47368336 0.31600893 C168.17983959 0.36772125 199.88579298 0.45605552 231.59179688 0.56762695 C231.2893476 1.47282499 231.2893476 1.47282499 230.98078823 2.39630985 C230.5805499 3.59535277 230.5805499 3.59535277 230.17222595 4.81861877 C229.9087181 5.60770913 229.64521025 6.39679949 229.37371731 7.20980167 C228.235245 10.64278368 227.13314697 14.08699439 226.03320312 17.5324707 C225.56008424 19.00714054 225.08677097 20.48174802 224.61328125 21.95629883 C223.88322324 24.23071974 223.15419584 26.50544377 222.4284668 28.78125 C220.01546463 36.34362328 217.58123909 43.8232006 214.53686523 51.15966797 C212.62272495 56.03674512 211.14376518 61.06616658 209.59179688 66.06762695 C208.92881475 68.20419043 208.26218724 70.33962637 207.59179688 72.47387695 C207.30304688 73.40522461 207.01429688 74.33657227 206.71679688 75.29614258 C205.80053866 77.96060873 204.80628279 80.53797672 203.74267578 83.14453125 C201.31122793 89.15973765 199.24242155 95.28191646 197.17773438 101.4309082 C196.54337958 103.30796687 195.90902385 105.18502523 195.27462196 107.06206799 C194.39098208 109.67882979 193.50988698 112.29644554 192.62878418 114.9140625 C190.90508512 120.03335019 189.17688057 125.15111933 187.4484024 130.26879501 C187.01794187 131.5435821 186.58767963 132.81843616 186.15761566 134.09335709 C183.73615297 141.27095474 181.29736879 148.44205725 178.81933594 155.6003418 C178.5925371 156.25579955 178.36573826 156.91125731 178.13206673 157.58657742 C177.05242551 160.70497008 175.96987705 163.82229011 174.88339233 166.93830872 C173.17593547 171.85774405 171.50556022 176.76535185 170.05810547 181.76806641 C168.83618291 185.94240952 167.28929212 189.90888472 165.63858032 193.92996216 C163.68065336 198.86350887 162.03868554 203.90692987 160.35351562 208.9387207 C159.95599594 210.11738205 159.55847626 211.2960434 159.14891052 212.51042175 C158.29831634 215.03256852 157.44861719 217.55499587 156.60040283 220.07794189 C154.35668385 226.75032987 152.10175563 233.41893209 149.84570312 240.0871582 C149.62009453 240.75417503 149.39448593 241.42119186 149.16204071 242.10842133 C144.84622778 254.86358841 140.44117749 267.58641049 135.97982025 280.29137421 C131.30080827 293.61840985 126.70117954 306.97107227 122.14648438 320.34106445 C121.50454789 322.2234946 120.86253969 324.10590029 120.22045898 325.98828125 C118.67675028 330.51445022 117.13399283 335.04094233 115.59179688 339.56762695 C97.87520614 339.66142059 80.1586806 339.73177666 62.44189453 339.77487564 C54.21410784 339.79542671 45.98647618 339.82340304 37.75878906 339.86938477 C30.58044509 339.90948265 23.40221348 339.93511382 16.2237606 339.94398093 C12.42920376 339.94915723 8.63496815 339.96116384 4.84051514 339.99054718 C-19.78920138 340.17372629 -40.41989091 339.22675732 -59.40820312 321.56762695 C-76.37292071 303.92677932 -77.87076115 283.52367356 -77.78051758 260.40087891 C-77.78295026 258.20141427 -77.78667418 256.00195074 -77.7915802 253.80249023 C-77.80092588 247.8708838 -77.79161809 241.93944421 -77.77824807 236.00785089 C-77.76686846 229.77950048 -77.77104598 223.55115751 -77.772995 217.32279968 C-77.773932 206.20217988 -77.76054157 195.08163198 -77.7408336 183.9610314 C-77.72333457 173.90043618 -77.71864932 163.83990527 -77.72387695 153.77929688 C-77.73059763 140.80719117 -77.7272684 127.83512919 -77.71477318 114.86302757 C-77.71014381 109.92434252 -77.7092461 104.98567797 -77.71135902 100.04699135 C-77.71325 94.22823592 -77.70507596 88.4095767 -77.68929863 82.5908432 C-77.68507598 80.46246171 -77.68419154 78.33407041 -77.68698883 76.20568657 C-77.71175931 53.97814016 -75.16250608 34.86458287 -59.28320312 17.88012695 C-41.86958594 1.46492964 -22.76517329 -0.17882788 0 0 Z " fill="#B200F9" transform="translate(77.408203125,-0.567626953125)"/>
<path d="M0 0 C9.04832276 8.52347805 10.54504146 22.66913528 12.74902344 34.31762695 C12.99344681 35.5777359 13.23787018 36.83784485 13.48970032 38.13613892 C14.1507926 41.54521002 14.80315879 44.95589576 15.45380306 48.36697412 C16.13859381 51.94870984 16.83163099 55.52884976 17.52374268 59.10917664 C18.82912343 65.86855456 20.12723161 72.62930715 21.42264104 79.39060229 C22.89946333 87.09681635 24.38452607 94.8014352 25.87023497 102.50594008 C28.92257156 118.33555363 31.96471 134.16710875 35 150 C46.75179023 110.03863614 46.75179023 110.03863614 58.33203125 70.02734375 C58.80143887 68.39342422 59.27091055 66.75952309 59.740448 65.12564087 C61.57513537 58.7394266 63.40902044 52.3530007 65.23266602 45.96362305 C66.39430776 41.89455246 67.56228663 37.8273473 68.73444176 33.76129341 C69.16613429 32.2594362 69.5955419 30.75691985 70.02237892 29.25367546 C77.32733334 3.53601533 77.32733334 3.53601533 87.6875 -2.375 C95.12952452 -5.64949079 103.0176667 -5.83816295 110.6484375 -3.125 C119.27631177 1.00262091 122.64895471 7.38763659 126 16 C127.88574303 21.62464862 129.55551628 27.30410315 131.2109375 33 C131.70084635 34.6633793 132.19147448 36.32654689 132.68276978 37.98951721 C133.98737629 42.41259651 135.28220442 46.838481 136.57507324 51.2650032 C137.91270898 55.83845873 139.2595148 60.40921165 140.60546875 64.98022461 C142.7467019 72.25607305 144.88291885 79.53337334 147.01464844 86.81201172 C149.63949745 95.7742597 152.27398559 104.73363368 154.9140625 113.69140625 C158.28311796 125.12553262 161.6452192 136.56167753 165 148 C168.65970375 131.45958857 172.0533394 114.87031275 175.36359406 98.25691986 C176.04344985 94.84517028 176.72464555 91.43369066 177.40618896 88.02227783 C180.23926224 73.83774863 180.23926224 73.83774863 183.05566406 59.64990234 C184.21490467 53.79339695 185.38351944 47.9388296 186.55830002 42.08542252 C186.99947865 39.87826007 187.43723466 37.67041039 187.87135696 35.46184921 C188.47648813 32.38531551 189.09359079 29.31140255 189.71337891 26.23779297 C189.88593704 25.34525818 190.05849518 24.45272339 190.23628235 23.53314209 C191.8222055 15.77964795 193.97089456 7.45897867 199.4375 1.5 C199.99308594 0.8709375 200.54867187 0.241875 201.12109375 -0.40625 C206.40053767 -4.88444776 213.35626235 -5.04141981 220 -5 C226.57736626 -4.1335764 231.18309019 -1.85520728 235.59375 3.1171875 C239.81227105 8.76531846 240.71416171 14.1279545 240 21 C239.5977681 23.59669081 239.17215067 26.17908104 238.70991516 28.76493835 C238.57694261 29.51160064 238.44397006 30.25826293 238.30696803 31.02755135 C236.85307168 39.03263004 235.08328961 46.95689561 233.26635742 54.88598633 C232.90095879 56.49454795 232.53588189 58.10318268 232.1710968 59.71188354 C231.19179847 64.02453197 230.2069393 68.33588941 229.22010207 72.6468184 C228.60144188 75.34962386 227.98365601 78.05262789 227.36608315 80.75568199 C225.4267642 89.24192744 223.4836719 97.72729677 221.53549594 106.21151334 C219.29832 115.9547148 217.07421018 125.70077962 214.86109656 135.44947416 C213.14020487 143.02612316 211.40741585 150.59999074 209.66577226 158.17189616 C208.62972249 162.67743965 207.59863747 167.18397712 206.58012962 171.6935215 C205.62266702 175.93136764 204.6503647 180.1655442 203.6670208 184.39745712 C203.31100304 185.94086625 202.96013616 187.48547513 202.61512375 189.03138161 C196.7972613 215.05173802 196.7972613 215.05173802 186.5625 221.546875 C185.716875 221.94390625 184.87125 222.3409375 184 222.75 C183.154375 223.15734375 182.30875 223.5646875 181.4375 223.984375 C173.36434722 227.34818866 162.77268593 227.42534371 154.5625 224.4375 C145.25539636 220.00775084 138.90784999 212.66382292 135.25811386 203.04471207 C133.32033637 197.37843549 131.69301549 191.61830034 130.04296875 185.86328125 C129.49139887 183.97849882 128.93858253 182.09408077 128.38459778 180.21000671 C126.93056749 175.25252828 125.49348295 170.29029519 124.05999756 165.32684326 C122.63029243 160.38743456 121.18462124 155.45270934 119.74023438 150.51757812 C117.24452653 141.98269913 114.76444098 133.44339192 112.29235649 124.90164375 C110.59789895 119.05088969 108.88885982 113.20458755 107.17041016 107.36083984 C106.5366651 105.2001926 105.90326102 103.03944577 105.27001381 100.87865257 C104.87832085 99.54505539 104.48527447 98.21185486 104.09078026 96.87908363 C103.55865164 95.08084426 103.03173255 93.28106569 102.50512695 91.48120117 C102.21201126 90.48658371 101.91889557 89.49196625 101.61689758 88.46720886 C101 86 101 86 101 83 C100.34 83 99.68 83 99 83 C98.9062912 83.54667328 98.8125824 84.09334656 98.71603394 84.65658569 C97.24312249 92.63327514 94.95351474 100.34101886 92.6328125 108.1015625 C92.19687686 109.57131415 91.76132872 111.04118079 91.32614136 112.51115417 C90.16945489 116.41390495 89.00726226 120.31499333 87.84350586 124.21564102 C86.64211717 128.24424649 85.44437335 132.2739357 84.24609375 136.3034668 C82.81913248 141.10083728 81.39140525 145.89797626 79.96099854 150.69432068 C77.62083097 158.54228937 75.2903348 166.39278187 72.98922729 174.25231934 C71.90515087 177.95460631 70.81453914 181.65494632 69.72259521 185.35491943 C69.24764472 186.97024858 68.77574991 188.5864799 68.30718994 190.20367432 C64.2356837 204.24333813 60.27418743 216.4804883 46.87890625 224.2265625 C38.63843559 227.56013664 27.85465449 227.40629605 19.5625 224.4375 C9.75543796 219.73726629 5.01222263 212.94138509 1 203 C-0.92364437 196.87298654 -2.19298634 190.56817106 -3.546875 184.296875 C-3.95888095 182.44577844 -4.37232581 180.59500166 -4.78709412 178.74452209 C-5.89602975 173.77949182 -6.985917 168.81045923 -8.07232285 163.84045792 C-9.21025173 158.65108226 -10.36612785 153.46571106 -11.52075195 148.2800293 C-13.18039242 140.81949892 -14.8347085 133.35782707 -16.48207188 125.89457607 C-19.38933702 112.72515552 -22.3368514 99.56516634 -25.30859375 86.41015625 C-25.51789394 85.48326618 -25.72719414 84.55637611 -25.94283676 83.60139847 C-26.96405116 79.07902306 -27.98572335 74.55675127 -29.00769043 70.0345459 C-30.70788351 62.51026384 -32.40570343 54.98545163 -34.09849739 47.45950127 C-34.42994083 45.98690049 -34.7618252 44.51439887 -35.09420586 43.04200935 C-41.72386408 13.67258452 -41.72386408 13.67258452 -37.38671875 5.95703125 C-33.87057016 0.99480465 -29.64717001 -2.89793817 -23.6875 -4.5 C-15.49364457 -5.77146033 -6.78253812 -5.09808359 0 0 Z " fill="#C400F7" transform="translate(609,6)"/>
<path d="M0 0 C1.96385902 -0.01441132 1.96385902 -0.01441132 3.96739197 -0.02911377 C5.38263776 -0.03396584 6.79788562 -0.03824366 8.21313477 -0.04199219 C8.9369591 -0.04481956 9.66078342 -0.04764694 10.40654182 -0.05056 C14.24401328 -0.0655045 18.08144767 -0.07476146 21.91894531 -0.07910156 C25.83522709 -0.08455164 29.75115513 -0.10851921 33.66732693 -0.13707352 C36.71929327 -0.15593064 39.77117871 -0.16091776 42.82319832 -0.16243744 C44.26414974 -0.1654174 45.70510143 -0.17328274 47.14599419 -0.18662262 C68.1323994 -0.36690899 86.34437075 3.55036247 101.71801758 18.578125 C113.23816683 30.74370281 114.6294939 45.0118601 114.42797852 60.93847656 C114.05646167 73.77874093 109.63874485 84.65318379 100.22875977 93.55566406 C96.49874371 96.53243415 92.391746 98.86798501 88.21704102 101.16113281 C89.54155273 101.58072266 89.54155273 101.58072266 90.89282227 102.00878906 C108.72705656 107.96630449 120.30549591 117.40578534 129.21704102 134.16113281 C135.8438888 149.51713872 134.44607458 167.26450568 128.96313477 182.68847656 C122.21954571 199.61176135 111.98135916 209.90606136 95.68969727 217.68847656 C86.28757762 221.67565216 76.88757131 223.29813998 66.70825195 223.35400391 C65.87487808 223.3621814 65.04150421 223.37035889 64.18287659 223.37878418 C61.43906346 223.40349142 58.69530151 223.4201157 55.95141602 223.43457031 C54.53864254 223.44255583 54.53864254 223.44255583 53.09732819 223.45070267 C48.11266394 223.47736953 43.12802419 223.49676565 38.14331055 223.51123047 C34.0327325 223.52456673 29.92265119 223.55242322 25.81225586 223.59326172 C20.83210453 223.6427277 15.85240337 223.66736797 10.87201691 223.67445755 C8.98229295 223.68114392 7.09257803 223.69629731 5.2029953 223.72034836 C-15.34361121 223.96697257 -15.34361121 223.96697257 -23.69781494 216.43466187 C-28.90033044 211.22924172 -29.99053333 204.55369704 -30.05510789 197.38076121 C-30.05132857 196.69815948 -30.04754924 196.01555775 -30.0436554 195.31227112 C-30.04748094 194.56449573 -30.05130649 193.81672034 -30.05524796 193.04628509 C-30.06549267 190.56309129 -30.06160222 188.0801324 -30.05761719 185.59692383 C-30.06196836 183.80741158 -30.06715286 182.01790119 -30.07310486 180.22839355 C-30.08646169 175.38335508 -30.08707728 170.53839478 -30.08454156 165.69334149 C-30.08346971 161.64269701 -30.08836063 157.5920682 -30.09314698 153.54142708 C-30.10423046 143.98292832 -30.10468593 134.42446887 -30.09863281 124.8659668 C-30.0925917 115.0172937 -30.10491021 105.16876341 -30.12620288 95.32011467 C-30.1438353 86.851933 -30.14981769 78.38379673 -30.14656514 69.91559738 C-30.14475494 64.86337042 -30.14736229 59.81124538 -30.16127968 54.75903511 C-30.17388028 50.00735457 -30.1718928 45.25589629 -30.15886879 40.50421906 C-30.15650842 38.76481742 -30.15921829 37.02540003 -30.16749191 35.28601646 C-30.25076374 16.41238001 -30.25076374 16.41238001 -24.59545898 7.84863281 C-17.44770397 1.0185558 -9.67209454 0.05771767 0 0 Z M18.21704102 42.16113281 C18.21704102 57.34113281 18.21704102 72.52113281 18.21704102 88.16113281 C23.12579102 88.26425781 28.03454102 88.36738281 33.09204102 88.47363281 C34.61941895 88.51915283 36.14679688 88.56467285 37.72045898 88.61157227 C46.60814457 88.7015286 53.92929306 87.82716406 60.85327148 81.71728516 C66.26394759 75.79130657 66.68329 69.00759916 66.51782227 61.35253906 C65.98923581 55.74403082 64.47983253 52.18406842 60.26391602 48.41503906 C51.13779929 41.76190851 41.60721308 41.87977479 30.65454102 42.03613281 C24.49797852 42.09800781 24.49797852 42.09800781 18.21704102 42.16113281 Z M18.21704102 130.16113281 C18.21704102 146.99113281 18.21704102 163.82113281 18.21704102 181.16113281 C28.51922852 181.28488281 28.51922852 181.28488281 39.02954102 181.41113281 C41.17429932 181.44754883 43.31905762 181.48396484 45.52880859 181.52148438 C56.47122631 181.62983259 66.42388533 181.59172879 75.65454102 174.91113281 C81.80020211 168.3157892 83.6038721 161.0822507 83.48657227 152.23144531 C82.91894549 145.76543593 80.1437494 141.76943126 75.52954102 137.34863281 C66.94860284 130.35970543 56.19747174 129.9895784 45.56079102 130.06347656 C44.86115234 130.06448364 44.16151367 130.06549072 43.44067383 130.06652832 C40.86611251 130.07169868 38.29157484 130.08565911 35.71704102 130.09863281 C27.05454102 130.12957031 27.05454102 130.12957031 18.21704102 130.16113281 Z " fill="#A001FB" transform="translate(1038.782958984375,4.8388671875)"/>
<path d="M0 0 C1.20682686 -0.0076664 1.20682686 -0.0076664 2.43803406 -0.01548767 C5.06822378 -0.02926142 7.69814789 -0.02843635 10.32836914 -0.02612305 C12.17485143 -0.03001636 14.02133284 -0.03435233 15.86781311 -0.03910828 C19.72668367 -0.04654399 23.58546269 -0.04629826 27.44433594 -0.04101562 C32.36780378 -0.03522104 37.29089542 -0.0521647 42.21430111 -0.0753603 C46.02435972 -0.09015325 49.83432884 -0.09096185 53.64441109 -0.08785057 C55.4587332 -0.08836087 57.2730607 -0.0935434 59.08735466 -0.10366249 C80.96017126 -0.21071193 80.96017126 -0.21071193 87.86352539 5.17700195 C88.37915039 5.84860352 88.89477539 6.52020508 89.42602539 7.2121582 C89.96227539 7.88118164 90.49852539 8.55020508 91.05102539 9.23950195 C94.95560778 15.0187276 96.02980376 20.84953619 94.92602539 27.7121582 C93.53376144 33.10367698 90.53388993 37.54839857 86.42602539 41.2746582 C79.7092757 45.18017398 73.00093917 44.65830238 65.39868164 44.56762695 C64.04105602 44.56202343 62.68342429 44.55775691 61.32579041 44.55476379 C57.77304995 44.54337435 54.22068437 44.5139593 50.66809082 44.48065186 C47.03472046 44.44982264 43.40128703 44.43606614 39.76782227 44.42114258 C32.65356018 44.390679 25.54032409 44.33194602 18.42602539 44.2746582 C18.42602539 58.7946582 18.42602539 73.3146582 18.42602539 88.2746582 C22.07536133 88.25145508 25.72469727 88.22825195 29.48461914 88.2043457 C33.03922173 88.18872518 36.59382041 88.17659409 40.1484375 88.16479492 C42.60906704 88.15476936 45.06968476 88.14114546 47.53027344 88.1237793 C51.07758511 88.09937942 54.62473853 88.08814033 58.17211914 88.0793457 C59.2631041 88.06902313 60.35408905 88.05870056 61.47813416 88.04806519 C69.81803956 88.04685426 78.06634736 88.29694767 84.85571289 93.6652832 C89.20031366 98.11795862 92.14442206 103.92837415 92.55493164 110.1730957 C92.07815777 117.9459546 89.17140912 124.06609063 83.42602539 129.2746582 C78.61062338 132.71423107 74.66982814 133.40133343 68.83129883 133.38818359 C67.71043884 133.38810806 66.58957886 133.38803253 65.43475342 133.38795471 C64.23046692 133.38279343 63.02618042 133.37763214 61.78540039 133.37231445 C59.9294223 133.37019203 59.9294223 133.37019203 58.03594971 133.36802673 C54.75457598 133.3633793 51.47325166 133.35440168 48.19189453 133.34332275 C44.84025528 133.3330734 41.48861391 133.32860679 38.13696289 133.32348633 C31.56661105 133.3133092 24.99638156 133.29373343 18.42602539 133.2746582 C18.42602539 148.4546582 18.42602539 163.6346582 18.42602539 179.2746582 C24.74887695 179.22245117 24.74887695 179.22245117 31.19946289 179.16918945 C34.58500402 179.14986273 37.97052932 179.13360634 41.35609436 179.11940765 C44.91646609 179.10364175 48.47661949 179.08261454 52.03686523 179.04833984 C56.13275121 179.00916044 60.22841013 178.99488536 64.32446289 178.98168945 C65.58527679 178.9662056 66.8460907 178.95072174 68.14511108 178.93476868 C76.10543075 178.93326616 84.34527526 179.08984199 90.86352539 184.17700195 C91.63696289 185.1844043 91.63696289 185.1844043 92.42602539 186.2121582 C92.96227539 186.88118164 93.49852539 187.55020508 94.05102539 188.23950195 C97.97240326 194.04358681 99.02066188 199.88558726 97.92602539 206.7746582 C96.21781099 213.5373152 91.05725223 218.4382447 85.42602539 222.2746582 C81.45090623 223.59969792 77.63663968 223.43043421 73.49169922 223.43579102 C72.57752228 223.44075592 71.66334534 223.44572083 70.72146606 223.45083618 C67.69198863 223.46546038 64.6625636 223.47226118 61.63305664 223.4777832 C59.52658588 223.4835356 57.42011514 223.48929333 55.31364441 223.49505615 C50.89268754 223.50556767 46.47174886 223.51140897 42.05078125 223.51489258 C36.39609024 223.52036957 30.74164097 223.54438007 25.08702564 223.57286453 C20.73318286 223.59152588 16.37939781 223.59669844 12.02551842 223.59822845 C9.94159312 223.60124894 7.85766869 223.609257 5.77378273 223.62241364 C2.85144537 223.63954277 -0.07030805 223.63757676 -2.99267578 223.63110352 C-3.8475206 223.6403183 -4.70236542 223.64953308 -5.58311462 223.6590271 C-11.99811919 223.61470222 -17.72803819 222.64461919 -22.81616211 218.4074707 C-23.35499023 217.74489258 -23.89381836 217.08231445 -24.44897461 216.3996582 C-25.00327148 215.74223633 -25.55756836 215.08481445 -26.12866211 214.4074707 C-29.37541021 209.61632351 -29.86616045 205.28040014 -29.84140015 199.60346985 C-29.84819682 198.45608338 -29.84819682 198.45608338 -29.85513079 197.28551739 C-29.86777553 194.7262533 -29.86615437 192.167202 -29.86450195 189.60791016 C-29.87048728 187.77120185 -29.87729284 185.93449606 -29.88485718 184.09779358 C-29.90252696 179.10996054 -29.90721306 174.12219612 -29.90848875 169.1343348 C-29.9099107 166.01602926 -29.9141812 162.89774114 -29.91948318 159.77943993 C-29.93798883 148.8944526 -29.94615339 138.00951425 -29.94458008 127.12451172 C-29.94337951 116.98902898 -29.96446384 106.85375948 -29.9960674 96.71833068 C-30.02225328 88.00900598 -30.03294636 79.2997508 -30.03166926 70.59038705 C-30.03116018 65.39217045 -30.03681336 60.19414324 -30.05802536 54.99596596 C-30.07744585 50.10310516 -30.07750613 45.2106136 -30.0629921 40.31773949 C-30.06090742 38.52715386 -30.06558448 36.73654491 -30.07771301 34.94599915 C-30.14255649 24.70544446 -30.1470321 15.38512474 -23.74975586 6.8371582 C-23.13487305 6.3215332 -22.51999023 5.8059082 -21.88647461 5.2746582 C-20.98348633 4.4702832 -20.98348633 4.4702832 -20.06225586 3.6496582 C-13.95083882 0.27254863 -6.84931542 -0.02301159 0 0 Z " fill="#B001F9" transform="translate(894.573974609375,4.725341796875)"/>
<path d="M0 0 C5.46673583 6.0358604 9.70202261 13.0547605 14 19.9375 C21.91874212 32.49256906 30.23236672 44.76478835 38.6328125 57.00170898 C39.59899491 58.41647893 40.56514242 59.8312727 41.53125 61.24609375 C41.98359009 61.90017212 42.43593018 62.55425049 42.90197754 63.22814941 C46 67.77413081 46 67.77413081 46 70 C46.66 70 47.32 70 48 70 C48.27433868 69.26190094 48.54867737 68.52380188 48.83132935 67.76333618 C49.92305308 65.18194194 51.12385016 63.09471428 52.69873047 60.78662109 C53.24044891 59.98743256 53.78216736 59.18824402 54.34030151 58.36483765 C55.21986008 57.08209457 55.21986008 57.08209457 56.1171875 55.7734375 C56.72958282 54.8711441 57.34197815 53.96885071 57.97293091 53.03921509 C59.93581466 50.14807195 61.90485535 47.26119917 63.875 44.375 C66.43874482 40.61458275 68.99835748 36.85139893 71.5546875 33.0859375 C72.50054718 31.69710358 72.50054718 31.69710358 73.46551514 30.2802124 C76.51609719 25.77614614 79.49664176 21.24797276 82.34082031 16.61035156 C82.86668732 15.75494781 83.39255432 14.89954407 83.93435669 14.01821899 C84.90199335 12.43053344 85.85826667 10.83583178 86.79977417 9.23251343 C90.92452171 2.45199855 95.92287293 -3.53415361 103.875 -5.5 C112.1762372 -6.64763648 119.14537689 -5.97296186 126 -1 C131.34314056 3.85740051 133.42997173 9.83169934 134 17 C133.49948123 26.08049009 130.72139248 32.09402474 125.375 39.3125 C124.70911865 40.24908447 124.0432373 41.18566895 123.35717773 42.15063477 C121.95542313 44.12154993 120.54537172 46.0865883 119.12744141 48.04589844 C116.382365 51.85762951 113.70975698 55.71702806 111.03833008 59.58056641 C109.05076498 62.45446814 107.05419822 65.32189884 105.0546875 68.1875 C83.28930988 94.23797731 83.28930988 94.23797731 71.71289062 123.89282227 C71.70605759 124.69649734 71.69922455 125.50017242 71.69218445 126.32820129 C71.6785904 128.07477074 71.669541 129.82138007 71.66447449 131.56799507 C71.6561814 134.33932918 71.63566826 137.11033437 71.61193848 139.88157654 C71.56367669 145.7751687 71.53081441 151.66879424 71.5 157.5625 C71.4642449 164.37002107 71.42207539 171.1773838 71.36405945 177.98475456 C71.34412963 180.70214393 71.33569647 183.41940921 71.32775879 186.13685608 C71.19378083 208.15174168 71.19378083 208.15174168 65 217 C58.34939924 223.30954432 51.58637942 223.45917355 42.890625 223.23046875 C34.47560701 222.73198877 34.47560701 222.73198877 31 220 C25.00879774 213.02201149 22.83624889 207.80639836 22.98510742 198.66748047 C23.00454794 196.90307105 23.02350157 195.13865621 23.04203796 193.37423706 C23.05877847 191.9687089 23.05877847 191.9687089 23.07585716 190.53478622 C23.13710264 184.50033348 23.13716508 178.46549937 23.14846325 172.43078423 C23.1618365 167.14300164 23.19627469 161.85703006 23.27758789 156.56982422 C23.35521903 151.44329725 23.37276363 146.31951345 23.3517704 141.19247818 C23.35420211 139.25262281 23.37747619 137.31266166 23.42339134 135.37334824 C23.74514037 121.05750899 20.73130335 112.69377304 11.44935226 101.74656487 C9.36150763 99.23057467 7.55026623 96.57585691 5.71484375 93.87109375 C5.08835937 92.97068359 4.461875 92.07027344 3.81640625 91.14257812 C3.19636719 90.24990234 2.57632812 89.35722656 1.9375 88.4375 C1.256875 87.45845703 0.57625 86.47941406 -0.125 85.47070312 C-4.35790967 79.37739364 -8.57235852 73.27182845 -12.76660156 67.15185547 C-17.58727961 60.12605024 -22.46476322 53.13969237 -27.34375 46.15429688 C-30.39123011 41.78380893 -33.42781808 37.40605382 -36.41796875 32.99609375 C-36.89387451 32.29540771 -37.36978027 31.59472168 -37.86010742 30.87280273 C-41.41682971 25.02923522 -40.56342101 17.57545462 -40 11 C-38.11408886 3.93473288 -34.45762681 -0.29833762 -28.18359375 -3.9453125 C-19.03513561 -8.36406688 -7.83027632 -6.00428835 0 0 Z " fill="#8E01FD" transform="translate(1212,7)"/>
<path d="M0 0 C16.5 0 33 0 50 0 C48.52756073 3.68109817 47.03703597 6.94238614 45.1640625 10.40234375 C44.31896118 11.96782959 44.31896118 11.96782959 43.45678711 13.56494141 C42.85229736 14.67788574 42.24780762 15.79083008 41.625 16.9375 C40.68442749 18.67652588 40.68442749 18.67652588 39.72485352 20.45068359 C35.32703135 28.57893381 30.90547882 36.69434607 26.47338867 44.80395508 C23.8899698 49.53116214 21.31381141 54.26212523 18.75 59 C18.20303467 60.01070557 17.65606934 61.02141113 17.0925293 62.06274414 C15.99848601 64.08702279 14.90616983 66.11223593 13.81567383 68.13842773 C11.16473896 73.05366088 8.47790858 77.94083317 5.69921875 82.78515625 C5.18109619 83.69700684 4.66297363 84.60885742 4.12915039 85.54833984 C3.15211736 87.26262763 2.16362099 88.97045087 1.16186523 90.67041016 C0.72946533 91.43272949 0.29706543 92.19504883 -0.1484375 92.98046875 C-0.53177246 93.63942139 -0.91510742 94.29837402 -1.31005859 94.97729492 C-2.58720746 98.72151939 -1.28014381 101.41674815 0.37597656 104.86474609 C0.95831055 105.90711426 1.54064453 106.94948242 2.140625 108.0234375 C2.4588472 108.59725159 2.7770694 109.17106567 3.10493469 109.76226807 C4.14678152 111.63689073 5.19824017 113.50592393 6.25 115.375 C6.98222193 116.68769141 7.7139054 118.0006833 8.44506836 119.31396484 C10.62009775 123.2149274 12.80786998 127.10862639 15 131 C15.58990723 132.04736328 16.17981445 133.09472656 16.78759766 134.17382812 C18.8941039 137.90840313 21.00395981 141.64103458 23.12060547 145.36987305 C26.06962113 150.56782101 28.99593343 155.77767532 31.89453125 161.00390625 C32.22612747 161.60176941 32.55772369 162.19963257 32.89936829 162.81561279 C34.50630925 165.7144888 36.11087828 168.61464365 37.71313477 171.51611328 C41.27641717 177.95417779 44.93112374 184.32129485 48.71923828 190.63012695 C50 193 50 193 50 195 C43.16950724 195.33078131 36.34108654 195.55770383 29.50439453 195.71411133 C27.18166971 195.77932368 24.85947538 195.86792541 22.53857422 195.98071289 C3.3571347 196.88922085 3.3571347 196.88922085 -2.07958984 192.53173828 C-4.21210548 189.10590822 -5.60130037 185.78090648 -7 182 C-8.22837378 179.73606336 -9.49190986 177.49086797 -10.7890625 175.265625 C-11.74093257 173.52999204 -12.69274609 171.79432325 -13.64019775 170.05627441 C-15.36767442 166.88782418 -17.10671905 163.72571903 -18.84375 160.5625 C-19.19422394 159.92354797 -19.54469788 159.28459595 -19.90579224 158.62628174 C-24.95058445 149.43473388 -30.09572919 140.29926244 -35.22949219 131.15722656 C-37.12835563 127.7711121 -39.02178981 124.38198706 -40.9140625 120.9921875 C-41.55585449 119.84331055 -42.19764648 118.69443359 -42.85888672 117.51074219 C-44.09317065 115.30095009 -45.32660809 113.09068491 -46.55908203 110.87988281 C-47.11192871 109.89084961 -47.66477539 108.90181641 -48.234375 107.8828125 C-48.72131836 107.01027832 -49.20826172 106.13774414 -49.70996094 105.23876953 C-50.73948839 103.45209906 -51.85617132 101.71574302 -53 100 C-52.64401866 96.12209831 -50.42509168 92.75782195 -48.60546875 89.3828125 C-48.26218033 88.7379892 -47.91889191 88.09316589 -47.56520081 87.42880249 C-46.44368005 85.32516242 -45.31575459 83.22503505 -44.1875 81.125 C-43.40695556 79.66485838 -42.62668403 78.20457084 -41.84667969 76.74414062 C-36.58276445 66.89996745 -31.26526079 57.08532809 -25.8984375 47.296875 C-22.19793586 40.54606281 -18.54222516 33.77097923 -14.88964844 26.99414062 C-10.00332611 17.95108438 -4.99324162 8.98783491 0 0 Z " fill="#FEFDFE" transform="translate(115,65)"/>
<path d="M0 0 C16.5 0 33 0 50 0 C52.35125 4.269375 54.7025 8.53875 57.125 12.9375 C66.35681754 29.67991673 75.67495829 46.37300298 85.09472656 63.01049805 C86.18381985 64.93632981 87.27047752 66.86354134 88.35449219 68.79223633 C90.89023779 73.30071007 93.45512165 77.78434847 96.10546875 82.2265625 C96.58467773 83.04519775 97.06388672 83.86383301 97.55761719 84.70727539 C98.44932458 86.22926782 99.3565701 87.74230961 100.28222656 89.24389648 C100.67249023 89.91751221 101.06275391 90.59112793 101.46484375 91.28515625 C101.98485962 92.14959351 101.98485962 92.14959351 102.51538086 93.03149414 C103.66039422 97.68249804 100.35922927 102.47395709 98.19921875 106.46484375 C97.64137695 107.49931641 97.08353516 108.53378906 96.50878906 109.59960938 C95.90776367 110.70111328 95.30673828 111.80261719 94.6875 112.9375 C94.0594043 114.09701172 93.43130859 115.25652344 92.78417969 116.45117188 C88.35944215 124.60174002 83.79766467 132.67065101 79.19384766 140.72119141 C73.31031403 151.08522125 67.78875748 161.64154103 62.26660156 172.20117188 C61.71101814 173.25989754 61.71101814 173.25989754 61.14421082 174.3400116 C60.45761818 175.64879994 59.77337066 176.95882315 59.09223938 178.27046204 C58.44429665 179.50464208 57.78043221 180.73058262 57.10162354 181.94805908 C56.27488469 183.48798557 55.52242054 185.0681597 54.809021 186.66375732 C51.44483544 193.48460683 51.44483544 193.48460683 47.57746887 194.864151 C44.56717814 195.16019628 41.71636888 195.12636864 38.6953125 194.9765625 C37.61619598 194.96241302 36.53707947 194.94826355 35.42526245 194.9336853 C31.98898129 194.87783838 28.55929828 194.75242776 25.125 194.625 C22.79176106 194.5748263 20.45841957 194.52920121 18.125 194.48828125 C12.41442734 194.37821252 6.70768483 194.21104833 1 194 C2.30892184 189.74699145 3.93955 185.97434013 6.0546875 182.0625 C6.66328613 180.93166992 7.27188477 179.80083984 7.89892578 178.63574219 C8.55748761 177.42375771 9.21618219 176.21184535 9.875 175 C10.55619804 173.7388072 11.23702042 172.47741144 11.91748047 171.21582031 C13.93814191 167.4734829 15.96785897 163.73611345 18 160 C18.82661133 158.47922852 18.82661133 158.47922852 19.66992188 156.92773438 C22.11651612 152.43036431 24.5696291 147.93661377 27.02734375 143.4453125 C29.13449423 139.591714 31.22918 135.73161393 33.31640625 131.8671875 C33.87424805 130.83480957 34.43208984 129.80243164 35.00683594 128.73876953 C36.11479557 126.68605059 37.22095821 124.63236055 38.32519531 122.57763672 C40.76468192 118.05364675 43.23077844 113.56018765 45.85546875 109.140625 C46.28448486 108.41149902 46.71350098 107.68237305 47.15551758 106.93115234 C47.93894907 105.61021941 48.73593177 104.29717907 49.54956055 102.99462891 C52.0169878 98.82238089 52.1232634 96.64231361 51 92 C49.85173141 89.37631974 49.85173141 89.37631974 48.33203125 86.82421875 C47.77572021 85.84437012 47.21940918 84.86452148 46.64624023 83.85498047 C46.04110596 82.80971191 45.43597168 81.76444336 44.8125 80.6875 C43.52838874 78.43374022 42.24454191 76.17982974 40.9609375 73.92578125 C40.29540128 72.76374649 39.62971104 71.60179993 38.96386719 70.43994141 C35.91838407 65.10542412 32.93008865 59.73930479 29.9375 54.375 C25.39665793 46.25850673 20.83184036 38.1559105 16.25 30.0625 C12.21231209 22.92606435 8.18330346 15.78498934 4.1875 8.625 C3.76049805 7.86324463 3.33349609 7.10148926 2.89355469 6.31665039 C0 1.11687674 0 1.11687674 0 0 Z " fill="#FDFDFD" transform="translate(338,79)"/>
<path d="M0 0 C6.93 0 13.86 0 21 0 C25.29 11.88 29.58 23.76 34 36 C36.18314079 32.72528882 37.44522465 29.40827071 38.78515625 25.7421875 C39.04630722 25.03853058 39.30745819 24.33487366 39.57652283 23.6098938 C40.40885905 21.36626982 41.23611611 19.12082256 42.0625 16.875 C42.89284902 14.62218947 43.72432936 12.369826 44.55918884 10.11868286 C45.07833334 8.71855097 45.59481305 7.31742767 46.1084137 5.91525269 C47.88763852 1.11236148 47.88763852 1.11236148 49 0 C55.6 0 62.2 0 69 0 C69 18.81 69 37.62 69 57 C64.38 57 59.76 57 55 57 C54.67 44.46 54.34 31.92 54 19 C49.38 31.54 44.76 44.08 40 57 C36.04 57 32.08 57 28 57 C26.78931111 54.0009331 25.58145067 51.00077186 24.375 48 C24.04371094 47.18015625 23.71242188 46.3603125 23.37109375 45.515625 C20.10797945 37.38862334 17.07813368 29.20835648 14 21 C13.67 32.88 13.34 44.76 13 57 C8.71 57 4.42 57 0 57 C0 38.19 0 19.38 0 0 Z " fill="#000000" transform="translate(726,283)"/>
<path d="M0 0 C6.47935074 5.44854494 10.31763169 11.50617316 11.0859375 20.046875 C11.31216765 30.04674228 10.56472475 38.39466488 3.625 46.1875 C-2.96387194 52.1441774 -11.50225016 54.40556117 -20.25 54.3125 C-28.13841359 53.78735065 -34.35746721 51.68914957 -40.25 46.3125 C-46.02978871 39.60248779 -48.79540565 32.47346916 -48.49609375 23.51171875 C-47.47270046 14.36615646 -44.60068709 6.7375408 -37.3984375 0.78125 C-25.96438455 -7.05403728 -11.93531775 -6.19718422 0 0 Z M-29.4375 12.625 C-32.8562712 17.69421246 -33.77332474 22.24193296 -33.25 28.3125 C-31.83891929 34.52599826 -29.42996397 37.67550402 -24.25 41.3125 C-21.17805092 42.84847454 -18.64755707 42.5390038 -15.25 42.3125 C-9.91260527 40.32405883 -6.79666176 37.40582352 -4.25 32.3125 C-4.07396853 29.90000308 -3.98255032 27.48099105 -3.9375 25.0625 C-3.90011719 23.75796875 -3.86273437 22.4534375 -3.82421875 21.109375 C-4.42448624 15.75653097 -7.10615821 11.73567366 -11.25 8.3125 C-18.74180057 5.81523314 -24.06767505 6.94832791 -29.4375 12.625 Z " fill="#000000" transform="translate(967.25,286.6875)"/>
<path d="M0 0 C33.48780488 0 33.48780488 0 40 5.5625 C43.45261383 9.7703731 43.34001094 12.91157004 43.27734375 18.23828125 C42.8860997 22.13419036 41.64496521 24.14622175 39 27 C37.05583451 28.51265559 35.12966832 29.74155963 33 31 C33.825 31.9075 34.65 32.815 35.5 33.75 C39.13608647 37.97338784 42.13189678 42.5655771 45.16796875 47.23046875 C46.91062904 49.95472612 46.91062904 49.95472612 48.73828125 52.17578125 C50 54 50 54 50 57 C44.64895051 58.10008885 39.21488021 59.06362318 34 57 C29.24196607 52.63060506 26.22847906 46.68066382 23.30175781 40.99291992 C20.80286387 37.16725014 18.40469321 36.1011733 14 35 C14 42.26 14 49.52 14 57 C9.38 57 4.76 57 0 57 C0 38.19 0 19.38 0 0 Z M14 10 C14 14.95 14 19.9 14 25 C20.98229846 25.35509917 20.98229846 25.35509917 27 22 C28.39935013 19.20129973 28.25265405 17.09501208 28 14 C26.58954855 11.9548454 25.5458893 11.21445651 23.25 10.3125 C20.19423981 9.88808886 17.0850924 10 14 10 Z " fill="#000000" transform="translate(1163,283)"/>
<path d="M0 0 C5.61 0 11.22 0 17 0 C19.80273438 7.20703125 22.60546875 14.4140625 25.40820312 21.62109375 C25.86469742 22.79457367 25.86469742 22.79457367 26.33041382 23.99176025 C26.94730462 25.57854014 27.56353339 27.16557757 28.17910767 28.75286865 C29.77952132 32.87703372 31.39247368 36.9956115 33.02685547 41.10644531 C33.35201645 41.92903839 33.67717743 42.75163147 34.01219177 43.59915161 C34.6337495 45.17068226 35.25927146 46.74065247 35.88929749 48.30880737 C37.08749696 51.34814793 38 53.70185004 38 57 C32.72 57 27.44 57 22 57 C20.68 53.04 19.36 49.08 18 45 C11.4 45 4.8 45 -2 45 C-3.32 48.96 -4.64 52.92 -6 57 C-11.28 57 -16.56 57 -22 57 C-20.00659879 50.90280473 -17.87358311 44.89105741 -15.56640625 38.90625 C-15.24719711 38.07468384 -14.92798798 37.24311768 -14.59910583 36.38635254 C-13.92864052 34.64146202 -13.25716506 32.89695932 -12.5847168 31.15283203 C-11.56560891 28.50806818 -10.55116406 25.86154857 -9.53710938 23.21484375 C-8.88048888 21.50770457 -8.22359683 19.8006698 -7.56640625 18.09375 C-7.26835587 17.31535767 -6.97030548 16.53696533 -6.66322327 15.73498535 C-4.60509018 10.41054718 -2.35124099 5.20186631 0 0 Z M7 15 C5.02 21.27 3.04 27.54 1 34 C5.62 34 10.24 34 15 34 C13.02 27.73 11.04 21.46 9 15 C8.34 15 7.68 15 7 15 Z " fill="#000000" transform="translate(1118,283)"/>
<path d="M0 0 C11.88 0 23.76 0 36 0 C36 3.63 36 7.26 36 11 C29.07 11 22.14 11 15 11 C15 14.96 15 18.92 15 23 C21.27 23 27.54 23 34 23 C34 26.63 34 30.26 34 34 C27.73 34 21.46 34 15 34 C15 37.96 15 41.92 15 46 C22.26 46 29.52 46 37 46 C37 49.63 37 53.26 37 57 C24.79 57 12.58 57 0 57 C0 38.19 0 19.38 0 0 Z " fill="#000000" transform="translate(807,283)"/>
<path d="M0 0 C0 4.29 0 8.58 0 13 C-1.27875 12.505 -2.5575 12.01 -3.875 11.5 C-10.22079727 9.37470929 -16.5497985 9.16973687 -23 11 C-23.10364179 13.87660942 -23.10364179 13.87660942 -22 17 C-19.40779786 18.64354075 -17.16377008 19.81837542 -14.375 21 C-1.35682964 27.00363669 -1.35682964 27.00363669 2.4375 33.4375 C3.74460153 39.39207364 3.26352005 43.92088281 0.30859375 49.20703125 C-3.1479701 53.94303963 -7.97170853 55.1883967 -13.4375 56.375 C-21.73928177 57.58348722 -31.03357188 56.65547604 -39 54 C-39 49.38 -39 44.76 -39 40 C-34 42 -34 42 -32.04296875 42.8515625 C-26.46359611 45.17727994 -21.50758841 46.07925797 -15.5625 44.25 C-13.57972087 42.6637767 -13.32987639 41.47407292 -13 39 C-16.47339237 35.9846374 -19.56731764 34.20261873 -23.875 32.625 C-30.05279766 30.14475119 -34.93238056 27.4160669 -38.4375 21.625 C-39.50822878 16.62826569 -39.53788931 12.61366793 -37.9375 7.8125 C-34.30720421 2.54271579 -29.62965566 -0.43400902 -23.296875 -1.72265625 C-15.23588885 -2.69600662 -7.81721859 -2.08459162 0 0 Z " fill="#000000" transform="translate(1047,284)"/>
<path d="M0 0 C16.17 0 32.34 0 49 0 C49 3.63 49 7.26 49 11 C43.39 11 37.78 11 32 11 C32 26.18 32 41.36 32 57 C27.05 57 22.1 57 17 57 C17 41.82 17 26.64 17 11 C11.39 11 5.78 11 0 11 C0 7.37 0 3.74 0 0 Z " fill="#000000" transform="translate(643,283)"/>
<path d="M0 0 C15.84 0 31.68 0 48 0 C48 3.63 48 7.26 48 11 C42.39 11 36.78 11 31 11 C31 26.18 31 41.36 31 57 C26.38 57 21.76 57 17 57 C17 41.82 17 26.64 17 11 C11.39 11 5.78 11 0 11 C0 7.37 0 3.74 0 0 Z " fill="#000000" transform="translate(1211,283)"/>
<path d="M0 0 C15.84 0 31.68 0 48 0 C48 3.63 48 7.26 48 11 C42.39 11 36.78 11 31 11 C31 26.18 31 41.36 31 57 C26.38 57 21.76 57 17 57 C17 41.82 17 26.64 17 11 C11.39 11 5.78 11 0 11 C0 7.37 0 3.74 0 0 Z " fill="#000000" transform="translate(1053,283)"/>
<path d="M0 0 C15.84 0 31.68 0 48 0 C48 3.63 48 7.26 48 11 C42.39 11 36.78 11 31 11 C31 26.18 31 41.36 31 57 C26.38 57 21.76 57 17 57 C17 41.82 17 26.64 17 11 C11.39 11 5.78 11 0 11 C0 7.37 0 3.74 0 0 Z " fill="#000000" transform="translate(871,283)"/>
<path d="M0 0 C4.62 0 9.24 0 14 0 C14 18.81 14 37.62 14 57 C9.38 57 4.76 57 0 57 C0 38.19 0 19.38 0 0 Z " fill="#000000" transform="translate(699,283)"/>
</svg>
